<svg width="0" height="0" class="hidden">
  <symbol xmlns="http://www.w3.org/2000/svg" viewBox="0 0 24 24" id="clock">
    <path d="M13 6C13 4.71031 11 4.71031 11 6V12C11 12.3788 11.214 12.725 11.5528 12.8944L15.5528 14.8944C16.7063 15.4712 17.6007 13.6823 16.4472 13.1056L13 11.382V6Z"></path>
    <path fill-rule="evenodd" clip-rule="evenodd" d="M12 1C5.92487 1 1 5.92487 1 12C1 18.0751 5.92487 23 12 23C18.0751 23 23 18.0751 23 12C23 5.92487 18.0751 1 12 1ZM3 12C3 7.02944 7.02944 3 12 3C16.9706 3 21 7.02944 21 12C21 16.9706 16.9706 21 12 21C7.02944 21 3 16.9706 3 12Z"></path>
  </symbol>
  <symbol xmlns="http://www.w3.org/2000/svg" viewBox="0 0 25 24" id="color-swatch">
    <path d="M18.25 17C18.25 16.4477 17.8023 16 17.25 16C16.6977 16 16.25 16.4477 16.25 17V17.01C16.25 17.5623 16.6977 18.01 17.25 18.01C17.8023 18.01 18.25 17.5623 18.25 17.01V17Z" ></path>
    <path fill-rule="evenodd" clip-rule="evenodd" d="M13.1287 2.87868C13.6913 2.31607 14.4544 2 15.25 2H19.25C20.0457 2 20.8087 2.31607 21.3713 2.87868C21.9339 3.44129 22.25 4.20435 22.25 5V17C22.25 18.3261 21.7232 19.5979 20.7855 20.5355C19.8479 21.4732 18.5761 22 17.25 22H5.25C4.45435 22 3.69129 21.6839 3.12868 21.1213C2.56607 20.5587 2.25 19.7957 2.25 19V15C2.25 14.2044 2.56607 13.4413 3.12868 12.8787C3.67344 12.3339 4.40614 12.0203 5.17439 12.001L4.88677 11.7133C4.32435 11.1507 4.0083 10.3877 4.0083 9.59222C4.0083 8.79673 4.32425 8.0338 4.88666 7.47122L7.71477 4.64311L9.12887 6.05743L6.30109 8.88522C6.11368 9.07274 6.0083 9.32711 6.0083 9.59222C6.0083 9.85734 6.11358 10.1116 6.30098 10.2991L12.25 16.2481V7.76456L10.5429 6.05743C10.3554 5.87003 10.101 5.76465 9.83587 5.76465C9.57076 5.76465 9.31639 5.87003 9.12887 6.05743L7.71477 4.64311C8.27735 4.0807 9.04038 3.76465 9.83587 3.76465C10.6314 3.76465 11.3943 4.08059 11.9569 4.64301L12.2507 4.9368C12.2669 4.16404 12.581 3.42637 13.1287 2.87868ZM7.17344 14H5.25C4.98478 14 4.73043 14.1054 4.54289 14.2929C4.35536 14.4804 4.25 14.7348 4.25 15V19C4.25 19.2652 4.35536 19.5196 4.54289 19.7071C4.73043 19.8946 4.98478 20 5.25 20H13.1734L7.17344 14ZM17.25 20C18.0456 20 18.8087 19.6839 19.3713 19.1213C19.9339 18.5587 20.25 17.7956 20.25 17V5C20.25 4.73478 20.1446 4.48043 19.9571 4.29289C19.7696 4.10536 19.5152 4 19.25 4H15.25C14.9848 4 14.7304 4.10536 14.5429 4.29289C14.3554 4.48043 14.25 4.73478 14.25 5V17C14.25 17.7956 14.5661 18.5587 15.1287 19.1213C15.6913 19.6839 16.4544 20 17.25 20Z"></path>
  </symbol>
  <symbol xmlns="http://www.w3.org/2000/svg" viewBox="0 0 25 24" id="fast">
    <path fill-rule="evenodd" clip-rule="evenodd" d="M5.02676 7.78908C5.39844 7.1082 6.13281 6.8047 6.8025 6.80489C7.15938 6.81426 7.50726 6.91899 7.81 7.1082L12.75 10.1961V8.8042C12.75 8.44719 12.8456 8.09669 13.0268 7.78908C13.208 7.48148 13.4682 7.22798 13.7805 7.05492C14.0927 6.88185 14.4456 6.79552 14.8025 6.80489C15.1594 6.81426 15.5073 6.91899 15.81 7.1082L20.923 10.3042C21.2106 10.484 21.4479 10.734 21.6123 11.0307C21.9412 11.624 21.9412 12.3764 21.6123 12.9697C21.4479 13.2664 21.2107 13.5164 20.923 13.6962L15.81 16.8922C15.5073 17.0814 15.1594 17.1861 14.8025 17.1955C14.0887 17.2143 13.3892 16.8265 13.0268 16.2113C12.8456 15.9037 12.75 15.5532 12.75 15.1962V13.8043L7.81004 16.8922C7.5073 17.0814 7.15938 17.1861 6.8025 17.1955C6.08872 17.2143 5.38917 16.8265 5.02676 16.2113C4.84556 15.9037 4.75 15.5532 4.75 15.1962V8.8042C4.75 8.42969 4.85437 8.10489 5.02676 7.78908ZM19.863 12.0002L14.75 8.8042V15.1962L19.863 12.0002ZM6.75 8.8042V15.1962L11.863 12.0002L6.75 8.8042Z"></path>
  </symbol>
  <symbol fill="none" xmlns="http://www.w3.org/2000/svg" viewBox="0 0 24 24" id="arrow-prev">
    <path fill-rule="evenodd" clip-rule="evenodd" d="M12.7071 4.29289C13.0976 4.68342 13.0976 5.31658 12.7071 5.70711L6.41421 12L12.7071 18.2929C13.0976 18.6834 13.0976 19.3166 12.7071 19.7071C12.3166 20.0976 11.6834 20.0976 11.2929 19.7071L4.29289 12.7071C3.90237 12.3166 3.90237 11.6834 4.29289 11.2929L11.2929 4.29289C11.6834 3.90237 12.3166 3.90237 12.7071 4.29289Z" fill="black"></path>
    <path fill-rule="evenodd" clip-rule="evenodd" d="M4 12C4 11.4477 4.44772 11 5 11H19C19.5523 11 20 11.4477 20 12C20 12.5523 19.5523 13 19 13H5C4.44772 13 4 12.5523 4 12Z" fill="black"></path>
  </symbol>
  <symbol xmlns="http://www.w3.org/2000/svg" viewBox="0 0 24 24" id="arrow-next">
    <path d="M5 12H19" stroke-width="2" stroke-linecap="round" stroke-linejoin="round"></path>
    <path d="M12 5L19 12L12 19" stroke-width="2" stroke-linecap="round" stroke-linejoin="round"></path>
  </symbol>
  <symbol xmlns="http://www.w3.org/2000/svg" viewBox="0 0 24 24" id="arrow-up">
    <path fill-rule="evenodd" clip-rule="evenodd" d="M19.7071 12.7071C19.3166 13.0976 18.6834 13.0976 18.2929 12.7071L12 6.41421L5.70711 12.7071C5.31658 13.0976 4.68342 13.0976 4.29289 12.7071C3.90237 12.3166 3.90237 11.6834 4.29289 11.2929L11.2929 4.29289C11.6834 3.90237 12.3166 3.90237 12.7071 4.29289L19.7071 11.2929C20.0976 11.6834 20.0976 12.3166 19.7071 12.7071Z"></path>
    <path fill-rule="evenodd" clip-rule="evenodd" d="M12 4C12.5523 4 13 4.44772 13 5L13 19C13 19.5523 12.5523 20 12 20C11.4477 20 11 19.5523 11 19L11 5C11 4.44772 11.4477 4 12 4Z"></path>
  </symbol>
  <symbol xmlns="http://www.w3.org/2000/svg" viewBox="0 0 24 24" id="whatsapp">
    <path d="M18.3769 5.63221C17.5476 4.79456 16.5599 4.13041 15.4712 3.67849C14.3826 3.22658 13.2149 2.99595 12.0362 3.00005C7.09749 3.00005 3.07236 7.02518 3.07236 11.9639C3.07236 13.5468 3.48844 15.0845 4.26633 16.4413L3 21.0905L7.74874 19.8423C9.0603 20.5568 10.5347 20.9367 12.0362 20.9367C16.9749 20.9367 21 16.9116 21 11.9729C21 9.57593 20.0683 7.32367 18.3769 5.63221ZM12.0362 19.4171C10.6975 19.4171 9.38593 19.0553 8.23719 18.3769L7.96583 18.2141L5.14372 18.9558L5.89447 16.2061L5.71357 15.9257C4.96982 14.738 4.5749 13.3652 4.57387 11.9639C4.57387 7.85734 7.9206 4.51061 12.0271 4.51061C14.0171 4.51061 15.8894 5.2885 17.2915 6.69955C17.9857 7.39057 18.5358 8.21251 18.91 9.11772C19.2842 10.0229 19.475 10.9934 19.4714 11.9729C19.4894 16.0794 16.1427 19.4171 12.0362 19.4171ZM16.1246 13.8453C15.8985 13.7367 14.795 13.194 14.596 13.1126C14.3879 13.0403 14.2432 13.0041 14.0894 13.2212C13.9357 13.4473 13.5106 13.9538 13.3839 14.0985C13.2573 14.2523 13.1216 14.2704 12.8955 14.1528C12.6693 14.0443 11.9457 13.8001 11.0955 13.0403C10.4261 12.4433 9.98291 11.7106 9.84724 11.4845C9.7206 11.2583 9.82914 11.1408 9.94673 11.0232C10.0462 10.9237 10.1729 10.7609 10.2814 10.6342C10.3899 10.5076 10.4352 10.4081 10.5075 10.2634C10.5799 10.1096 10.5437 9.98297 10.4894 9.87443C10.4352 9.76588 9.98291 8.66237 9.80201 8.2101C9.6211 7.77593 9.43116 7.8302 9.29548 7.82116H8.86131C8.70754 7.82116 8.47236 7.87543 8.26432 8.10156C8.06533 8.32769 7.48643 8.87041 7.48643 9.97392C7.48643 11.0774 8.29146 12.1448 8.4 12.2895C8.50854 12.4433 9.98291 14.7046 12.2261 15.6724C12.7598 15.9076 13.1759 16.0433 13.5015 16.1428C14.0352 16.3146 14.5236 16.2875 14.9126 16.2332C15.3467 16.1699 16.2422 15.6905 16.4231 15.1659C16.6131 14.6413 16.6131 14.198 16.5497 14.0985C16.4864 13.999 16.3508 13.9538 16.1246 13.8453Z"></path>
  </symbol>
  <symbol xmlns="http://www.w3.org/2000/svg" viewBox="0 0 25 24" id="color-lens">
    <path d="M6.75 13C7.57843 13 8.25 12.3284 8.25 11.5C8.25 10.6716 7.57843 10 6.75 10C5.92157 10 5.25 10.6716 5.25 11.5C5.25 12.3284 5.92157 13 6.75 13Z"></path>
    <path d="M11.25 7.5C11.25 8.32843 10.5784 9 9.75 9C8.92157 9 8.25 8.32843 8.25 7.5C8.25 6.67157 8.92157 6 9.75 6C10.5784 6 11.25 6.67157 11.25 7.5Z" ></path>
    <path d="M14.75 9C15.5784 9 16.25 8.32843 16.25 7.5C16.25 6.67157 15.5784 6 14.75 6C13.9216 6 13.25 6.67157 13.25 7.5C13.25 8.32843 13.9216 9 14.75 9Z" ></path>
    <path d="M19.25 11.5C19.25 12.3284 18.5784 13 17.75 13C16.9216 13 16.25 12.3284 16.25 11.5C16.25 10.6716 16.9216 10 17.75 10C18.5784 10 19.25 10.6716 19.25 11.5Z"></path>
    <path fill-rule="evenodd" clip-rule="evenodd" d="M12.25 22C6.74 22 2.25 17.51 2.25 12C2.25 6.49 6.74 2 12.25 2C17.76 2 22.25 6.04 22.25 11C22.25 14.31 19.56 17 16.25 17H14.48C14.2 17 13.98 17.22 13.98 17.5C13.98 17.62 14.03 17.73 14.11 17.83C14.52 18.3 14.75 18.89 14.75 19.5C14.75 20.163 14.4866 20.7989 14.0178 21.2678C13.5489 21.7366 12.913 22 12.25 22ZM12.25 4C7.84 4 4.25 7.59 4.25 12C4.25 16.41 7.84 20 12.25 20C12.53 20 12.75 19.78 12.75 19.5C12.7469 19.3703 12.6972 19.2461 12.61 19.15C12.2 18.69 11.98 18.1 11.98 17.5C11.98 16.837 12.2434 16.2011 12.7122 15.7322C13.1811 15.2634 13.817 15 14.48 15H16.25C18.46 15 20.25 13.21 20.25 11C20.25 7.14 16.66 4 12.25 4Z"></path>
  </symbol>
  <symbol xmlns="http://www.w3.org/2000/svg" viewBox="0 0 24 24" id="mail">
    <path fill-rule="evenodd" clip-rule="evenodd" d="M19.2519 3.04419C18.7107 2.99998 18.0464 2.99999 17.2414 3H6.75879C5.95383 2.99999 5.28945 2.99998 4.74826 3.04419C4.18616 3.09012 3.66946 3.18868 3.18412 3.43598C2.43148 3.81947 1.81955 4.43139 1.43606 5.18404C1.19743 5.65238 1.09729 6.14993 1.0493 6.6893C0.995839 6.85269 0.986466 7.02505 1.01822 7.1896C1.00007 7.63972 1.00008 8.16037 1.00009 8.7587V15.2413C1.00007 16.0463 1.00006 16.7106 1.04428 17.2518C1.0902 17.8139 1.18877 18.3306 1.43606 18.816C1.81955 19.5686 2.43148 20.1805 3.18412 20.564C3.66946 20.8113 4.18616 20.9099 4.74826 20.9558C5.28945 21 5.9538 21 6.75876 21H17.2414C18.0464 21 18.7107 21 19.2519 20.9558C19.814 20.9099 20.3307 20.8113 20.816 20.564C21.5687 20.1805 22.1806 19.5686 22.5641 18.816C22.8114 18.3306 22.91 17.8139 22.9559 17.2518C23.0001 16.7106 23.0001 16.0463 23.0001 15.2413V8.75868C23.0001 8.16035 23.0001 7.63971 22.9819 7.18959C23.0137 7.02505 23.0043 6.8527 22.9509 6.68931C22.9029 6.14994 22.8027 5.65238 22.5641 5.18404C22.1806 4.43139 21.5687 3.81947 20.816 3.43598C20.3307 3.18868 19.814 3.09012 19.2519 3.04419ZM3.03764 17.089C3.00086 16.6389 3.00009 16.0566 3.00009 15.2V8.92066L9.70689 13.6156C10.2515 13.998 10.7298 14.3338 11.2745 14.4696C11.7509 14.5884 12.2492 14.5884 12.7257 14.4696C13.2704 14.3338 13.7486 13.998 14.2933 13.6156L21.0001 8.92066V15.2C21.0001 16.0566 20.9993 16.6389 20.9625 17.089C20.9267 17.5274 20.8618 17.7516 20.7821 17.908C20.5904 18.2843 20.2844 18.5903 19.9081 18.782C19.7517 18.8617 19.5275 18.9266 19.089 18.9624C18.639 18.9992 18.0567 19 17.2001 19H6.80009C5.94351 19 5.36121 18.9992 4.91112 18.9624C4.47271 18.9266 4.2485 18.8617 4.0921 18.782C3.71578 18.5903 3.40982 18.2843 3.21807 17.908C3.13838 17.7516 3.07346 17.5274 3.03764 17.089ZM13.2617 11.8962L20.9173 6.53729C20.8816 6.33012 20.8351 6.19607 20.7821 6.09202C20.5904 5.7157 20.2844 5.40974 19.9081 5.21799C19.7517 5.1383 19.5275 5.07337 19.089 5.03755C18.639 5.00078 18.0567 5 17.2001 5H6.80009C5.94351 5 5.36121 5.00078 4.91112 5.03755C4.47271 5.07337 4.2485 5.1383 4.0921 5.21799C3.71578 5.40974 3.40982 5.7157 3.21807 6.09202C3.16506 6.19607 3.11858 6.33012 3.08286 6.53728L10.7385 11.8962C11.4674 12.4065 11.6218 12.495 11.7582 12.529C11.917 12.5686 12.0831 12.5686 12.242 12.529C12.3783 12.495 12.5328 12.4065 13.2617 11.8962Z"></path>
  </symbol>
  <symbol xmlns="http://www.w3.org/2000/svg" viewBox="0 0 24 24" id="marker-geo">
    <path fill-rule="evenodd" clip-rule="evenodd" d="M12 6C9.79086 6 8 7.79086 8 10C8 12.2091 9.79086 14 12 14C14.2091 14 16 12.2091 16 10C16 7.79086 14.2091 6 12 6ZM10 10C10 8.89543 10.8954 8 12 8C13.1046 8 14 8.89543 14 10C14 11.1046 13.1046 12 12 12C10.8954 12 10 11.1046 10 10Z"></path>
    <path fill-rule="evenodd" clip-rule="evenodd" d="M12 1C7.02944 1 3 5.02944 3 10C3 12.5262 4.14683 14.7402 5.70772 16.767C7.25859 18.7808 9.32634 20.7406 11.2929 22.7071C11.6834 23.0976 12.3166 23.0976 12.7071 22.7071C14.6738 20.7404 16.7413 18.781 18.2923 16.767C19.8532 14.7402 21 12.5262 21 10C21 5.02944 16.9706 1 12 1ZM5 10C5 6.13401 8.13401 3 12 3C15.866 3 19 6.13401 19 10C19 11.8921 18.1468 13.678 16.7077 15.5467C15.3033 17.3703 13.6303 18.9715 12 20.5889C10.3697 18.9715 8.69667 17.3703 7.29228 15.5467C5.85317 13.678 5 11.8921 5 10Z"></path>
  </symbol>
  <symbol xmlns="http://www.w3.org/2000/svg" viewBox="0 0 24 24" id="phone">
    <path fill-rule="evenodd" clip-rule="evenodd" d="M7.80771 1.87764C6.95637 1.44704 5.95097 1.44704 5.09963 1.87764C4.66703 2.09645 4.29148 2.47296 3.85704 2.90851L3.53594 3.22973C3.07021 3.69498 2.71306 4.05177 2.44226 4.53384C2.13333 5.08378 1.92782 5.87402 1.9297 6.5048C1.93134 7.05668 2.04573 7.45915 2.19323 7.97816L2.20923 8.03448C3.11557 11.2277 4.82592 14.2406 7.33755 16.7523C9.84919 19.2639 12.8621 20.9743 16.0554 21.8806L16.1117 21.8966C16.6307 22.0441 17.0332 22.1585 17.585 22.1601C18.2158 22.162 19.0061 21.9565 19.556 21.6476C20.0381 21.3768 20.3948 21.0196 20.8601 20.5539L21.1813 20.2328C21.6169 19.7984 21.9934 19.4228 22.2122 18.9902C22.6428 18.1389 22.6428 17.1335 22.2122 16.2821C21.9934 15.8495 21.6169 15.474 21.1813 15.0395L20.8906 14.749L20.8275 14.6858C20.5413 14.3991 20.2948 14.1522 20.0284 13.979C19.034 13.3325 17.7522 13.3325 16.7578 13.979C16.4914 14.1522 16.2449 14.3991 15.9587 14.6858L15.8956 14.7489C15.838 14.8066 15.8085 14.8359 15.7868 14.8564L15.7814 14.8575L15.7755 14.8583L15.7454 14.8444C15.725 14.8348 15.7014 14.8235 15.6693 14.8081C14.32 14.1603 13.0544 13.2768 11.9337 12.1561C10.8131 11.0354 9.92958 9.76981 9.28176 8.42053C9.26632 8.38839 9.25503 8.36485 9.24542 8.34443L9.23151 8.31438L9.23235 8.3084L9.23342 8.30302C9.25389 8.28136 9.28328 8.25182 9.34088 8.19421L9.40402 8.13114C9.69067 7.84498 9.93761 7.59845 10.1108 7.33201C10.7573 6.33767 10.7573 5.0558 10.1108 4.06146C9.93761 3.79501 9.69068 3.5485 9.40402 3.26233L9.0503 2.90851C8.61586 2.47296 8.24031 2.09645 7.80771 1.87764ZM6.00232 3.66234C6.2861 3.5188 6.62124 3.5188 6.90502 3.66234C7.01174 3.71632 7.14478 3.83158 7.7318 4.4186L7.92667 4.61347C8.31238 4.99918 8.39136 5.08591 8.4341 5.15165C8.64959 5.48309 8.64959 5.91038 8.4341 6.24183C8.39136 6.30756 8.31238 6.39429 7.92667 6.78L7.9032 6.80341C7.81314 6.89315 7.69911 7.00676 7.60142 7.14319C7.25271 7.63018 7.13981 8.29225 7.30744 8.86728C7.35419 9.02765 7.41782 9.15966 7.46733 9.26235L7.4788 9.28617C8.22297 10.8361 9.23706 12.2878 10.5195 13.5703C11.802 14.8528 13.2537 15.8669 14.8037 16.611L14.8275 16.6225C14.9302 16.672 15.0622 16.7356 15.2226 16.7824C15.7976 16.95 16.4596 16.8371 16.9466 16.4884C17.0831 16.3907 17.1967 16.2767 17.2864 16.1866L17.3098 16.1632C17.6955 15.7775 17.7823 15.6985 17.848 15.6557C18.1795 15.4402 18.6067 15.4402 18.9382 15.6557C19.0039 15.6985 19.0907 15.7775 19.4764 16.1632L19.6712 16.358C20.2582 16.9451 20.3735 17.0781 20.4275 17.1848C20.571 17.4686 20.571 17.8037 20.4275 18.0875C20.3735 18.1942 20.2582 18.3273 19.6712 18.9143L19.5136 19.0719C18.9534 19.6321 18.7914 19.7831 18.5765 19.9039C18.3274 20.0438 17.8767 20.161 17.591 20.1601C17.3368 20.1594 17.1837 20.1219 16.6014 19.9566C13.7279 19.141 11.0161 17.6024 8.75177 15.3381C6.48744 13.0737 4.94884 10.362 4.13324 7.48839C3.96798 6.90614 3.93045 6.75305 3.92969 6.49884C3.92884 6.21317 4.04606 5.76243 4.18597 5.51336C4.30668 5.29848 4.45769 5.13646 5.0179 4.57624L5.17554 4.41861C5.76256 3.83158 5.8956 3.71632 6.00232 3.66234Z"></path>
  </symbol>
  <symbol xmlns="http://www.w3.org/2000/svg" viewBox="0 0 25 24" id="shield-tick">
    <path d="M16.8843 9.27579C17.2437 8.85647 17.1951 8.22517 16.7758 7.86574C16.3565 7.50632 15.7252 7.55488 15.3657 7.97421L11.5685 12.4043L10.0821 10.9179C9.69158 10.5274 9.05842 10.5274 8.66789 10.9179C8.27737 11.3084 8.27737 11.9416 8.66789 12.3321L10.9179 14.5821C11.1149 14.7791 11.385 14.885 11.6634 14.8743C11.9417 14.8636 12.203 14.7373 12.3843 14.5258L16.8843 9.27579Z"></path>
    <path fill-rule="evenodd" clip-rule="evenodd" d="M13.106 1.69051C12.8767 1.60316 12.6233 1.60316 12.394 1.69051L4.519 4.69051C4.13125 4.83823 3.875 5.21006 3.875 5.625V13.125C3.875 17.5131 7.38906 20.7717 12.4559 22.3308C12.6475 22.3897 12.8525 22.3897 13.0441 22.3308C18.141 20.7625 21.625 17.1157 21.625 13.125V5.625C21.625 5.21006 21.3688 4.83823 20.981 4.69051L13.106 1.69051ZM5.875 13.125V6.31415L12.75 3.69511L19.625 6.31415V13.125C19.625 15.8258 17.2146 18.856 12.7492 20.3258C8.25666 18.8619 5.875 16.171 5.875 13.125Z"></path>
  </symbol>
  <symbol xmlns="http://www.w3.org/2000/svg" viewBox="0 0 25 24" id="zoom-in">
    <path fill-rule="evenodd" clip-rule="evenodd" d="M11.5 4C7.63401 4 4.5 7.13401 4.5 11C4.5 14.866 7.63401 18 11.5 18C13.3859 18 15.0977 17.2542 16.3564 16.0414C16.3827 16.0072 16.4115 15.9742 16.4429 15.9429C16.4742 15.9115 16.5072 15.8827 16.5414 15.8564C17.7542 14.5977 18.5 12.8859 18.5 11C18.5 7.13401 15.366 4 11.5 4ZM18.5319 16.6177C19.7635 15.078 20.5 13.125 20.5 11C20.5 6.02944 16.4706 2 11.5 2C6.52944 2 2.5 6.02944 2.5 11C2.5 15.9706 6.52944 20 11.5 20C13.625 20 15.578 19.2635 17.1177 18.0319L20.7929 21.7071C21.1834 22.0976 21.8166 22.0976 22.2071 21.7071C22.5976 21.3166 22.5976 20.6834 22.2071 20.2929L18.5319 16.6177ZM11.5 7C12.0523 7 12.5 7.44772 12.5 8V10H14.5C15.0523 10 15.5 10.4477 15.5 11C15.5 11.5523 15.0523 12 14.5 12H12.5V14C12.5 14.5523 12.0523 15 11.5 15C10.9477 15 10.5 14.5523 10.5 14V12H8.5C7.94772 12 7.5 11.5523 7.5 11C7.5 10.4477 7.94772 10 8.5 10H10.5V8C10.5 7.44772 10.9477 7 11.5 7Z" fill="white"></path>
  </symbol>
</svg>